Coordinates
version=1
nRows=29
nColumns=24
inDegrees=yes

Units are S.I. units (second, meters, Newtons, ...)
Angles are in degrees.

endheader
time	pelvis_tilt	pelvis_list	pelvis_rotation	pelvis_tx	pelvis_ty	pelvis_tz	hip_flexion_r	hip_adduction_r	hip_rotation_r	knee_angle_r	ankle_angle_r	subtalar_angle_r	mtp_angle_r	hip_flexion_l	hip_adduction_l	hip_rotation_l	knee_angle_l	ankle_angle_l	subtalar_angle_l	mtp_angle_l	lumbar_extension	lumbar_bending	lumbar_rotation
      0.60000000	      2.50667302	      1.31400989	      2.84297309	     -0.70480693	      0.99205909	      0.27222834	     19.91089615	      0.16059027	     -0.56570605	     -3.65593741	      2.38662241	    -16.05029402	     10.30637905	    -22.77909700	      2.56905220	      6.30306905	     -8.91978300	     11.06144943	     -8.60620014	      6.50343582	     -4.76909742	     -1.85422093	     -6.00697836
      0.60416667	      2.48327380	      1.16844873	      2.88734988	     -0.69822498	      0.99179424	      0.27269026	     19.89211016	      0.37594554	     -0.36293859	     -4.23283839	      1.98494444	    -16.35915063	     10.29139938	    -22.68036438	      2.37507269	      6.10645687	     -9.78552820	     10.88508366	     -8.36093378	      6.58930467	     -4.62895402	     -1.65538448	     -6.09826708
      0.60833333	      2.47757663	      1.01379526	      2.91953569	     -0.69162202	      0.99158403	      0.27317530	     19.85585737	      0.60497005	     -0.18327009	     -4.81908349	      1.56641349	    -16.64434002	     10.28721172	    -22.56992437	      2.17077713	      5.84512426	    -10.70739467	     10.70048000	     -8.03213352	      6.73671364	     -4.51051265	     -1.44134859	     -6.16487438
      0.61250000	      2.48676341	      0.85068821	      2.93461400	     -0.68500574	      0.99141764	      0.27368490	     19.81648721	      0.84793298	     -0.02820693	     -5.43738609	      1.14504008	    -16.90346536	     10.29369943	    -22.45344214	      1.96027415	      5.53440711	    -11.67022427	     10.48292583	     -7.66463033	      6.98697912	     -4.41022984	     -1.21206249	     -6.21658788
      0.61666667	      2.54462972	      0.67352087	      2.94061503	     -0.67837201	      0.99135887	      0.27421908	     19.70954192	      1.10892196	      0.11462096	     -6.02958431	      0.74610503	    -17.09757512	     10.32611145	    -22.35165479	      1.72608413	      5.13405509	    -12.69181256	     10.19245841	     -7.23233226	      7.63924348	     -4.36877034	     -0.96812877	     -6.24842880
      0.62083333	      2.52515277	      0.51164329	      2.98292401	     -0.67172443	      0.99125512	      0.27470647	     19.69902252	      1.33539974	      0.17186237	     -6.66433541	      0.35632106	    -17.30697465	     10.57507504	    -22.13621613	      1.50420022	      4.84963011	    -13.75638866	      9.76846957	     -6.99908691	     12.48244354	     -4.22238483	     -0.74222752	     -6.21380925
      0.62500000	      2.50722930	      0.35668014	      2.97129007	     -0.66509274	      0.99117202	      0.27526387	     19.69629923	      1.56848338	      0.27999034	     -7.31161472	     -0.00940692	    -17.40323902	     10.57223070	    -21.89532867	      1.30885041	      4.49560011	    -14.87898270	      9.39447314	     -6.73975932	     12.54900876	     -4.07768495	     -0.53624894	     -6.29608562
      0.62916667	      2.53348383	      0.18784184	      2.95892975	     -0.65848820	      0.99117267	      0.27583933	     19.66151528	      1.81656081	      0.33689805	     -7.99712622	     -0.33925932	    -17.52720069	     10.56879834	    -21.65914665	      1.08205933	      4.06907122	    -16.07225185	      9.00460244	     -6.32037614	     12.70756831	     -4.00058921	     -0.30081746	     -6.28985226
      0.63333333	      2.55311859	      0.02050045	      2.94384718	     -0.65188983	      0.99120388	      0.27642394	     19.63227968	      2.05988769	      0.37429403	     -8.68443640	     -0.62494279	    -17.59543658	     10.56378758	    -21.38398329	      0.85374054	      3.64011407	    -17.31488997	      8.52511803	     -5.95555657	     12.92947420	     -3.91131340	     -0.06990761	     -6.27757483
      0.63750000	      2.57130310	     -0.14642770	      2.92417222	     -0.64532139	      0.99126749	      0.27702537	     19.60888212	      2.30174909	      0.39521365	     -9.38426030	     -0.86601456	    -17.63248386	     10.55440958	    -21.06439822	      0.61851090	      3.18625479	    -18.62623472	      8.01842262	     -5.56992186	     13.21626645	     -3.82347053	      0.15678972	     -6.25573147
      0.64166667	      2.58087249	     -0.30803699	      2.89614739	     -0.63877918	      0.99135715	      0.27764976	     19.59909808	      2.53716039	      0.40352121	    -10.09642898	     -1.06177842	    -17.63703317	     10.53975367	    -20.70121703	      0.38321531	      2.72027820	    -19.98596688	      7.43833271	     -5.20201026	     13.55517365	     -3.72908648	      0.37598167	     -6.22154158
      0.64583333	      2.61124481	     -0.47483105	      2.85979656	     -0.63227569	      0.99149568	      0.27829599	     19.56603699	      2.77939983	      0.40115482	    -10.80850446	     -1.20910903	    -17.60844537	     10.51874562	    -20.32552909	      0.13305906	      2.23030075	    -21.39845892	      6.81995787	     -4.82672326	     13.93902404	     -3.66264059	      0.60307890	     -6.17694956
      0.65000000	      2.64202738	     -0.64894622	      2.82816275	     -0.62579536	      0.99169328	      0.27897213	     19.50150958	      3.03388929	      0.44228104	    -11.45896951	     -1.38723735	    -17.69329304	     10.03484161	    -19.91860415	     -0.13958242	      1.74590413	    -22.83464470	      6.02432487	     -4.58443412	     20.90869920	     -3.59591449	      0.83455587	     -6.13201255
      0.65416667	      2.67313278	     -0.79996193	      2.77509614	     -0.61938472	      0.99188934	      0.27964785	     19.47761868	      3.25703598	      0.39803426	    -12.19984440	     -1.37829895	    -17.52043886	     10.03397717	    -19.47934239	     -0.38234321	      1.26866332	    -24.32991956	      5.28782281	     -4.29138787	     20.95197836	     -3.54571831	      1.03918261	     -6.07425266
      0.65833333	      2.69422034	     -0.95586111	      2.72914010	     -0.61301804	      0.99211040	      0.28034212	     19.44033851	      3.48666207	      0.37838705	    -12.88975421	     -1.39586972	    -17.44268769	     10.02325564	    -18.99399946	     -0.64290273	      0.81040632	    -25.87552483	      4.52392313	     -4.00895008	     21.02901649	     -3.48573509	      1.24793696	     -6.00956392
      0.66250000	      2.71336510	     -1.10998907	      2.67756927	     -0.60668171	      0.99237770	      0.28106153	     19.37766149	      3.71804836	      0.38347194	    -13.52538613	     -1.38101074	    -17.35452257	     10.00985133	    -18.47769631	     -0.91084649	      0.35017457	    -27.44527019	      3.69482891	     -3.76635545	     21.10564108	     -3.41931135	      1.44711647	     -5.94613480
      0.66666667	      2.73711369	     -1.26258675	      2.62942607	     -0.60043000	      0.99265503	      0.28178590	     19.31163054	      3.94599623	      0.36503426	    -14.16217311	     -1.33550231	    -17.27308283	      9.99003863	    -17.93297471	     -1.18726883	     -0.08745630	    -29.06503176	      2.87839459	     -3.54074601	     21.19231793	     -3.37394839	      1.64520919	     -5.87194702
      0.67083333	      2.75930586	     -1.41460629	      2.58301133	     -0.59423225	      0.99296572	      0.28252061	     19.22637457	      4.17476212	      0.35583634	    -14.75666084	     -1.26403585	    -17.19549415	      9.96710646	    -17.35822518	     -1.46958964	     -0.49651025	    -30.70970710	      2.02498944	     -3.36355341	     21.27337108	     -3.33449651	      1.84028003	     -5.79813545
      0.67500000	      2.76880482	     -1.55749045	      2.53862047	     -0.58808707	      0.99329271	      0.28325641	     19.13953274	      4.39271667	      0.33867282	    -15.32019452	     -1.17025856	    -17.12245555	      9.93884888	    -16.74430132	     -1.75028093	     -0.88477929	    -32.37542592	      1.19278347	     -3.21742877	     21.34739336	     -3.28579392	      2.02769406	     -5.72154512
      0.67916667	      2.79128729	     -1.70276249	      2.49733505	     -0.58202387	      0.99365771	      0.28400449	     19.01828423	      4.61600870	      0.33127746	    -15.83778371	     -1.05321276	    -17.05371570	      9.90798691	    -16.11869710	     -2.03974069	     -1.24290925	    -34.06108282	      0.35158097	     -3.11523168	     21.40189456	     -3.26190394	      2.21357215	     -5.64619152
      0.68333333	      2.79863027	     -1.83762670	      2.46055210	     -0.57601491	      0.99403317	      0.28474204	     18.89582246	      4.82666271	      0.31895581	    -16.32059380	     -0.92317273	    -17.00336923	      9.87111599	    -15.45481623	     -2.32105633	     -1.56408745	    -35.75798578	     -0.47125966	     -3.06543882	     21.43483777	     -3.22829372	      2.39279595	     -5.56798602
      0.68750000	      2.79940222	     -1.97624706	      2.43472965	     -0.57006928	      0.99443743	      0.28548226	     18.75550698	      5.04219274	      0.31461112	    -16.75092627	     -0.77748385	    -16.95350424	      9.83200425	    -14.76629049	     -2.60665776	     -1.82889338	    -37.45521214	     -1.25986012	     -3.08394099	     21.43348874	     -3.19005173	      2.55175512	     -5.49484833
      0.69166667	      2.79395976	     -2.10200408	      2.41129700	     -0.56419172	      0.99486235	      0.28621185	     18.60183780	      5.24375795	      0.30659478	    -17.13823566	     -0.62011844	    -16.92704578	      9.78616759	    -14.05006628	     -2.88227964	     -2.07792097	    -39.15499803	     -1.99956107	     -3.13207665	     21.38948300	     -3.14902027	      2.71243605	     -5.42144896
      0.69583333	      2.79400415	     -2.22486663	      2.39661934	     -0.55837248	      0.99533135	      0.28692709	     18.41360214	      5.44301718	      0.30700198	    -17.46593597	     -0.45015261	    -16.90414232	      9.74126481	    -13.32689625	     -3.15232312	     -2.28116332	    -40.83935706	     -2.68606915	     -3.25315518	     21.30047909	     -3.12089504	      2.86082025	     -5.35189711
      0.70000000	      2.77831683	     -2.33139525	      2.38520639	     -0.55263772	      0.99579859	      0.28762453	     18.23331339	      5.62341031	      0.30238567	    -17.77144310	     -0.27354205	    -16.90432608	      9.67881998	    -12.57071868	     -3.39841900	     -2.44298818	    -42.51518190	     -3.29309085	     -3.41029443	     21.11940648	     -3.09253144	      3.00568100	     -5.28092456
      0.70416667	      2.81684400	     -2.45141610	      2.38775810	     -0.54693593	      0.99640268	      0.28829473	     17.94381495	      5.82209810	      0.32580565	    -17.97427381	     -0.06625453	    -16.90555864	      9.65176471	    -11.87161296	     -3.65921243	     -2.57536427	    -44.14572400	     -3.85042387	     -3.64347164	     20.99798695	     -3.12457629	      3.16219741	     -5.21940905
      0.70833333	      2.74980940	     -2.53296337	      2.38758927	     -0.54131605	      0.99687039	      0.28898096	     17.78664730	      5.97372711	      0.31384614	    -18.21018586	      0.07532524	    -16.94726468	      9.58077388	    -11.03243732	     -3.87258900	     -2.68161574	    -45.78135383	     -4.28853643	     -3.91259236	     20.65542899	     -3.02801461	      3.23988188	     -5.14419708
      0.71250000	      2.76180363	     -2.60667312	      2.39815007	     -0.53575498	      0.99750860	      0.28958974	     17.50871405	      6.11580586	      0.31413450	    -18.38232634	      0.36080867	    -16.87007422	      8.20726563	    -10.28312123	     -4.05645412	     -2.72792156	    -47.36619371	     -4.58241050	     -4.14494663	     13.02095462	     -3.05203829	      3.34202979	     -5.12083109
      0.71666667	      2.78335693	     -2.69643620	      2.41628961	     -0.53022955	      0.99820129	      0.29021246	     17.17545500	      6.28432625	      0.36355128	    -18.45091291	      0.52902357	    -16.96251901	      8.21229761	     -9.54074200	     -4.26380736	     -2.77264292	    -48.89807295	     -4.82684865	     -4.52585731	     12.97439169	     -3.08618705	      3.46023337	     -5.02584006
